<svg width="25" height="25" viewBox="0 0 25 25" fill="none" xmlns="http://www.w3.org/2000/svg">
<path d="M9.2625 13.75H12.2875C12.452 13.751 12.6151 13.7194 12.7674 13.6572C12.9197 13.595 13.0582 13.5034 13.175 13.3875L17.65 8.9125C17.8828 8.6783 18.0135 8.36148 18.0135 8.03125C18.0135 7.70102 17.8828 7.3842 17.65 7.15L14.625 4.15C14.3908 3.91719 14.074 3.78651 13.7437 3.78651C13.4135 3.78651 13.0967 3.91719 12.8625 4.15L8.3875 8.625C8.15198 8.85579 8.0172 9.17029 8.0125 9.5V12.5C8.0125 12.8315 8.1442 13.1495 8.37862 13.3839C8.61304 13.6183 8.93098 13.75 9.2625 13.75ZM10.5125 10L13.75 6.8L15 8.05L11.775 11.25H10.525L10.5125 10ZM23.75 15H22.5V2.5H23.75C24.0815 2.5 24.3995 2.3683 24.6339 2.13388C24.8683 1.89946 25 1.58152 25 1.25C25 0.918479 24.8683 0.600537 24.6339 0.366116C24.3995 0.131696 24.0815 0 23.75 0H1.25C0.918479 0 0.600537 0.131696 0.366116 0.366116C0.131696 0.600537 0 0.918479 0 1.25C0 1.58152 0.131696 1.89946 0.366116 2.13388C0.600537 2.3683 0.918479 2.5 1.25 2.5H2.5V15H1.25C0.918479 15 0.600537 15.1317 0.366116 15.3661C0.131696 15.6005 0 15.9185 0 16.25C0 16.5815 0.131696 16.8995 0.366116 17.1339C0.600537 17.3683 0.918479 17.5 1.25 17.5H11.25V18.9375L5.5625 22.6875C5.32917 22.8319 5.14985 23.0491 5.05221 23.3056C4.95457 23.5621 4.94404 23.8435 5.02224 24.1066C5.10044 24.3696 5.26303 24.5996 5.48492 24.7611C5.7068 24.9225 5.97566 25.0065 6.25 25C6.49575 25.0028 6.7362 24.9285 6.9375 24.7875L11.25 21.9375V23.75C11.25 24.0815 11.3817 24.3995 11.6161 24.6339C11.8505 24.8683 12.1685 25 12.5 25C12.8315 25 13.1495 24.8683 13.3839 24.6339C13.6183 24.3995 13.75 24.0815 13.75 23.75V21.9375L18.0625 24.7875C18.2638 24.9285 18.5042 25.0028 18.75 25C19.0171 24.9979 19.2764 24.9104 19.4901 24.7502C19.7038 24.59 19.8606 24.3656 19.9375 24.1098C20.0143 23.8541 20.0073 23.5804 19.9173 23.3289C19.8273 23.0775 19.6592 22.8614 19.4375 22.7125L13.75 18.9625V17.5H23.75C24.0815 17.5 24.3995 17.3683 24.6339 17.1339C24.8683 16.8995 25 16.5815 25 16.25C25 15.9185 24.8683 15.6005 24.6339 15.3661C24.3995 15.1317 24.0815 15 23.75 15ZM20 15H5V2.5H20V15Z" fill="white"/>
</svg>
